<?xml version="1.0" encoding="UTF-8"?>
<svg width="200" height="200" viewBox="0 0 200 200" fill="none" xmlns="http://www.w3.org/2000/svg" role="img" aria-labelledby="title desc">
  <title id="title">Astronaut</title>
  <desc id="desc">Simple astronaut illustration for the Solar System Query app</desc>
  <defs>
    <linearGradient id="bg" x1="0" y1="0" x2="200" y2="200" gradientUnits="userSpaceOnUse">
      <stop stop-color="#4f46e5"/>
      <stop offset="1" stop-color="#111827"/>
    </linearGradient>
  </defs>
  <rect x="0" y="0" width="200" height="200" rx="20" fill="url(#bg)"/>
  <!-- Stars -->
  <g fill="#ffffff" opacity="0.85">
    <circle cx="30" cy="30" r="1.5"/>
    <circle cx="60" cy="18" r="1.2"/>
    <circle cx="150" cy="28" r="1.2"/>
    <circle cx="180" cy="60" r="1.3"/>
    <circle cx="22" cy="140" r="1.1"/>
    <circle cx="176" cy="148" r="1.4"/>
    <circle cx="98" cy="16" r="1.3"/>
  </g>
  <!-- Astronaut body -->
  <g transform="translate(25 35)">
    <!-- Backpack -->
    <rect x="20" y="60" width="90" height="70" rx="12" fill="#0ea5e9" opacity="0.3"/>
    <!-- Torso -->
    <rect x="30" y="55" width="80" height="80" rx="16" fill="#e5e7eb" stroke="#94a3b8" stroke-width="2"/>
    <!-- Controls -->
    <rect x="50" y="85" width="40" height="22" rx="6" fill="#111827"/>
    <circle cx="58" cy="96" r="4" fill="#ef4444"/>
    <circle cx="72" cy="96" r="4" fill="#22c55e"/>
    <circle cx="86" cy="96" r="4" fill="#3b82f6"/>
    <!-- Head -->
    <circle cx="70" cy="40" r="28" fill="#e5e7eb" stroke="#94a3b8" stroke-width="2"/>
    <rect x="48" y="26" width="44" height="28" rx="10" fill="#0f172a"/>
    <rect x="54" y="32" width="32" height="16" rx="8" fill="#1f2937"/>
    <!-- Arms -->
    <rect x="14" y="70" width="20" height="44" rx="10" fill="#e5e7eb" stroke="#94a3b8" stroke-width="2"/>
    <rect x="106" y="70" width="20" height="44" rx="10" fill="#e5e7eb" stroke="#94a3b8" stroke-width="2"/>
    <!-- Legs -->
    <rect x="46" y="132" width="18" height="30" rx="8" fill="#e5e7eb" stroke="#94a3b8" stroke-width="2"/>
    <rect x="76" y="132" width="18" height="30" rx="8" fill="#e5e7eb" stroke="#94a3b8" stroke-width="2"/>
  </g>
</svg>
